<svg width="874" height="744" viewBox="0 0 874 744" fill="none" xmlns="http://www.w3.org/2000/svg">
<path opacity="0.010101" d="M245.454 369.692L395.285 87.9013C399.048 80.8247 406.939 76.9758 414.832 78.3675L729.132 133.787C737.025 135.179 743.124 141.495 744.239 149.431L788.656 465.473C789.771 473.41 785.649 481.162 778.446 484.676L491.598 624.581C484.394 628.094 475.747 626.57 470.18 620.804L248.481 391.229C242.914 385.463 241.692 376.769 245.454 369.692Z" stroke="url(#paint0_linear_7_145)" stroke-opacity="0.2" stroke-width="3"/>
<path opacity="0.020202" d="M242.283 365.725L396.701 87.148C400.587 80.1382 408.544 76.4276 416.412 77.9569L729.072 138.732C736.94 140.261 742.928 146.682 743.904 154.637L782.721 470.776C783.698 478.731 779.441 486.41 772.178 489.797L483.507 624.406C476.244 627.793 467.625 626.118 462.159 620.256L244.934 387.311C239.468 381.45 238.398 372.735 242.283 365.725Z" stroke="url(#paint1_linear_7_145)" stroke-opacity="0.2" stroke-width="3"/>
<path opacity="0.030303" d="M239.202 361.77L398.14 86.4808C402.147 79.5399 410.168 75.9687 418.008 77.6351L728.939 143.725C736.778 145.392 742.653 151.917 743.491 159.887L776.718 476.023C777.556 483.994 773.166 491.597 765.844 494.857L475.449 624.15C468.127 627.409 459.539 625.584 454.176 619.628L241.475 383.399C236.112 377.443 235.194 368.711 239.202 361.77Z" stroke="url(#paint2_linear_7_145)" stroke-opacity="0.2" stroke-width="3"/>
<path opacity="0.040404" d="M236.208 357.829L399.6 85.8999C403.728 79.03 411.81 75.5994 419.619 77.4023L728.73 148.766C736.539 150.569 742.299 157.195 742.998 165.18L770.647 481.214C771.346 489.198 766.824 496.724 759.446 499.856L467.424 623.812C460.046 626.943 451.491 624.968 446.233 618.92L238.104 379.494C232.846 373.446 232.081 364.699 236.208 357.829Z" stroke="url(#paint3_linear_7_145)" stroke-opacity="0.2" stroke-width="3"/>
<path opacity="0.050505" d="M233.304 353.902L401.079 85.4049C405.327 78.6081 413.467 75.319 421.244 77.258L728.445 153.852C736.222 155.791 741.866 162.517 742.425 170.512L764.51 486.347C765.069 494.342 760.417 501.788 752.985 504.79L459.433 623.393C452.002 626.395 443.483 624.271 438.331 618.132L234.821 375.597C229.669 369.458 229.057 360.699 233.304 353.902Z" stroke="url(#paint4_linear_7_145)" stroke-opacity="0.2" stroke-width="3"/>
<path opacity="0.0606061" d="M230.487 349.99L402.577 84.9949C406.942 78.2733 415.139 75.1268 422.88 77.2011L728.085 158.98C735.826 161.055 741.352 167.878 741.771 175.882L758.308 491.419C758.727 499.423 753.945 506.787 746.463 509.659L451.479 622.893C443.997 625.765 435.516 623.493 430.472 617.264L231.625 371.709C226.581 365.48 226.122 356.712 230.487 349.99Z" stroke="url(#paint5_linear_7_145)" stroke-opacity="0.2" stroke-width="3"/>
<path opacity="0.0707071" d="M227.758 346.096L404.091 84.6713C408.573 78.0269 416.823 75.0239 424.527 77.2331L727.647 164.151C735.351 166.36 740.757 173.279 741.037 181.289L752.042 496.432C752.321 504.442 747.412 511.721 739.88 514.462L443.562 622.313C436.031 625.054 427.591 622.634 422.656 616.319L228.517 367.831C223.582 361.515 223.276 352.741 227.758 346.096Z" stroke="url(#paint6_linear_7_145)" stroke-opacity="0.2" stroke-width="3"/>
<path opacity="0.0808081" d="M225.115 342.222L405.62 84.4353C410.217 77.8701 418.518 75.0116 426.183 77.3549L727.132 169.364C734.796 171.707 740.08 178.72 740.22 186.733L745.712 501.385C745.852 509.398 740.816 516.591 733.238 519.2L435.684 621.656C428.106 624.265 419.709 621.698 414.886 615.298L225.495 363.967C220.671 357.566 220.518 348.788 225.115 342.222Z" stroke="url(#paint7_linear_7_145)" stroke-opacity="0.2" stroke-width="3"/>
<path opacity="0.0909091" d="M222.559 338.369L407.162 84.285C411.873 77.801 420.223 75.0878 427.845 77.5645L726.539 174.616C734.161 177.092 739.322 184.196 739.322 192.21V506.275C739.322 514.29 734.161 521.393 726.539 523.869L427.845 620.921C420.223 623.397 411.873 620.684 407.162 614.2L222.559 360.117C217.848 353.633 217.848 344.853 222.559 338.369Z" stroke="url(#paint8_linear_7_145)" stroke-opacity="0.2" stroke-width="3"/>
<path opacity="0.10101" d="M220.089 334.536L408.716 84.2206C413.539 77.8198 421.935 75.2528 429.514 77.8621L725.867 179.905C733.445 182.514 738.481 189.706 738.341 197.72L732.871 511.101C732.731 519.114 727.447 526.126 719.782 528.47L420.049 620.107C412.384 622.451 404.082 619.592 399.485 613.027L219.71 356.281C215.113 349.716 215.266 340.937 220.089 334.536Z" stroke="url(#paint9_linear_7_145)" stroke-opacity="0.2" stroke-width="3"/>
<path opacity="0.111111" d="M217.705 330.729L410.28 84.2442C415.214 77.9286 423.654 75.5084 431.185 78.2496L725.115 185.231C732.647 187.973 737.556 195.252 737.277 203.261L726.36 515.864C726.081 523.874 720.675 530.793 712.971 533.002L412.294 619.22C404.59 621.429 396.34 618.426 391.858 611.782L216.946 352.464C212.464 345.819 212.77 337.045 217.705 330.729Z" stroke="url(#paint10_linear_7_145)" stroke-opacity="0.2" stroke-width="3"/>
<path opacity="0.121212" d="M215.405 326.945L411.853 84.3529C416.896 78.1243 425.377 75.8518 432.86 78.724L724.284 190.592C731.767 193.464 736.549 200.827 736.129 208.831L719.792 520.561C719.373 528.565 713.847 535.388 706.106 537.463L404.584 618.255C396.842 620.33 388.646 617.183 384.28 610.461L214.267 348.664C209.902 341.942 210.361 333.174 215.405 326.945Z" stroke="url(#paint11_linear_7_145)" stroke-opacity="0.2" stroke-width="3"/>
<path opacity="0.131313" d="M213.19 323.19L413.433 84.5495C418.584 78.4099 427.103 76.2858 434.535 79.2882L723.374 195.987C730.805 198.989 735.457 206.435 734.898 214.43L713.167 525.194C712.608 533.189 706.965 539.915 699.188 541.854L396.919 617.218C389.142 619.157 381.002 615.868 376.754 609.071L211.672 344.885C207.425 338.088 208.038 329.329 213.19 323.19Z" stroke="url(#paint12_linear_7_145)" stroke-opacity="0.2" stroke-width="3"/>
<path opacity="0.141414" d="M211.057 319.462L415.018 84.8321C420.276 78.7834 428.831 76.8083 436.209 79.9399L722.382 201.413C729.759 204.545 734.282 212.071 733.583 220.055L706.487 529.759C705.789 537.744 700.029 544.37 692.219 546.173L389.3 616.107C381.491 617.91 373.409 614.48 369.281 607.61L209.162 341.127C205.034 334.257 205.799 325.511 211.057 319.462Z" stroke="url(#paint13_linear_7_145)" stroke-opacity="0.2" stroke-width="3"/>
<path opacity="0.151515" d="M209.008 315.763L416.607 85.2007C421.97 79.2446 430.558 77.4191 437.88 80.679L721.309 206.87C728.631 210.13 733.021 217.733 732.183 225.704L699.753 534.257C698.915 542.227 693.041 548.752 685.201 550.419L381.729 614.924C373.889 616.59 365.868 613.019 361.861 606.078L206.735 337.392C202.728 330.451 203.645 321.719 209.008 315.763Z" stroke="url(#paint14_linear_7_145)" stroke-opacity="0.2" stroke-width="3"/>
<path opacity="0.161616" d="M207.041 312.095L418.199 85.656C423.665 79.7945 432.284 78.1192 439.548 81.5063L720.155 212.356C727.419 215.743 731.676 223.422 730.699 231.377L692.966 538.686C691.99 546.641 686.002 553.062 678.134 554.591L374.206 613.669C366.339 615.198 358.381 611.488 354.496 604.478L204.391 333.681C200.505 326.671 201.575 317.957 207.041 312.095Z" stroke="url(#paint15_linear_7_145)" stroke-opacity="0.2" stroke-width="3"/>
<path opacity="0.171717" d="M205.155 308.461L419.792 86.1981C425.359 80.4328 434.006 78.9082 441.209 82.4216L718.92 217.87C726.123 221.383 730.245 229.136 729.13 237.072L686.128 543.047C685.013 550.983 678.913 557.299 671.021 558.691L366.734 612.345C358.841 613.737 350.949 609.888 347.187 602.811L202.129 329.997C198.366 322.92 199.588 314.226 205.155 308.461Z" stroke="url(#paint16_linear_7_145)" stroke-opacity="0.2" stroke-width="3"/>
<path opacity="0.181818" d="M203.351 304.859L421.384 86.8255C427.051 81.1583 435.723 79.7848 442.864 83.4234L717.602 223.409C724.744 227.048 728.73 234.871 727.476 242.787L679.24 547.337C677.986 555.253 671.778 561.461 663.862 562.715L359.312 610.951C351.396 612.204 343.573 608.218 339.935 601.077L199.949 326.339C196.31 319.198 197.683 310.526 203.351 304.859Z" stroke="url(#paint17_linear_7_145)" stroke-opacity="0.2" stroke-width="3"/>
<path opacity="0.191919" d="M201.626 301.293L422.974 87.5392C428.739 81.9718 437.434 80.7498 444.51 84.5125L716.202 228.974C723.279 232.736 727.128 240.628 725.736 248.521L672.303 551.556C670.911 559.449 664.595 565.548 656.659 566.664L351.943 609.489C344.006 610.604 336.254 606.482 332.74 599.279L197.849 322.71C194.336 315.507 195.86 306.86 201.626 301.293Z" stroke="url(#paint18_linear_7_145)" stroke-opacity="0.2" stroke-width="3"/>
<path opacity="0.20202" d="M199.98 297.762L424.56 88.3371C430.422 82.8711 439.136 81.801 446.146 85.6866L714.72 234.559C721.73 238.445 725.44 246.402 723.911 254.27L665.318 555.703C663.789 563.57 657.368 569.558 649.413 570.535L344.627 607.958C336.672 608.935 328.993 604.678 325.606 597.414L195.83 319.11C192.443 311.846 194.118 303.228 199.98 297.762Z" stroke="url(#paint19_linear_7_145)" stroke-opacity="0.2" stroke-width="3"/>
<path opacity="0.212121" d="M198.412 294.27L426.141 89.2223C432.097 83.8595 440.829 82.9417 447.77 86.9491L713.155 240.169C720.096 244.176 723.667 252.197 722 260.037L658.288 559.78C656.622 567.619 650.097 573.494 642.126 574.332L337.365 606.364C329.395 607.201 321.791 602.811 318.531 595.49L193.891 315.543C190.631 308.221 192.456 299.633 198.412 294.27Z" stroke="url(#paint20_linear_7_145)" stroke-opacity="0.2" stroke-width="3"/>
<path opacity="0.222222" d="M196.923 290.817L427.716 90.1912C433.764 84.9331 442.511 84.1679 449.381 88.2957L711.506 245.796C718.376 249.924 721.807 258.006 720.004 265.816L651.213 563.782C649.41 571.591 642.784 577.351 634.8 578.05L330.159 604.703C322.175 605.401 314.649 600.879 311.517 593.501L192.03 312.007C188.899 304.63 190.874 296.075 196.923 290.817Z" stroke="url(#paint21_linear_7_145)" stroke-opacity="0.2" stroke-width="3"/>
<path opacity="0.232323" d="M195.509 287.405L429.282 91.2459C435.422 86.0942 444.18 85.4817 450.977 89.7289L709.775 251.444C716.572 255.691 719.861 263.831 717.922 271.608L644.095 567.712C642.156 575.488 635.43 581.132 627.435 581.691L323.01 602.979C315.014 603.538 307.568 598.885 304.566 591.454L190.248 308.507C187.246 301.075 189.37 292.556 195.509 287.405Z" stroke="url(#paint22_linear_7_145)" stroke-opacity="0.2" stroke-width="3"/>
<path opacity="0.242424" d="M194.172 284.034L430.839 92.3852C437.067 87.3414 445.835 86.8819 452.557 91.247L707.96 257.108C714.681 261.473 717.828 269.67 715.754 277.411L636.935 571.568C634.86 579.309 628.037 584.835 620.033 585.254L315.917 601.192C307.914 601.612 300.55 596.83 297.678 589.347L188.543 305.041C185.671 297.559 187.943 289.078 194.172 284.034Z" stroke="url(#paint23_linear_7_145)" stroke-opacity="0.2" stroke-width="3"/>
<path opacity="0.252525" d="M192.909 280.706L432.384 93.6078C438.7 88.6735 447.474 88.3671 454.119 92.8488L706.061 262.786C712.706 267.268 715.709 275.519 713.5 283.223L629.734 575.348C627.525 583.052 620.606 588.458 612.596 588.738L308.884 599.343C300.874 599.623 293.595 594.713 290.854 587.182L186.915 301.612C184.173 294.08 186.594 285.64 192.909 280.706Z" stroke="url(#paint24_linear_7_145)" stroke-opacity="0.2" stroke-width="3"/>
<path opacity="0.262626" d="M191.72 277.422L433.916 94.9141C440.317 90.0908 449.096 89.9375 455.661 94.5346L704.079 268.479C710.644 273.076 713.503 281.377 711.16 289.042L622.494 579.053C620.151 586.718 613.139 592.002 605.126 592.141L301.909 597.434C293.896 597.574 286.704 592.538 284.094 584.96L185.362 298.22C182.753 290.642 185.32 282.245 191.72 277.422Z" stroke="url(#paint25_linear_7_145)" stroke-opacity="0.2" stroke-width="3"/>
<path opacity="0.272727" d="M190.605 274.184L435.435 96.3045C441.919 91.5936 450.699 91.5936 457.183 96.3045L702.014 274.184C708.498 278.895 711.211 287.245 708.734 294.868L615.217 582.683C612.741 590.306 605.637 595.466 597.623 595.466L294.996 595.466C286.981 595.466 279.878 590.306 277.401 582.683L183.884 294.868C181.408 287.245 184.121 278.895 190.605 274.184Z" stroke="url(#paint26_linear_7_145)" stroke-opacity="0.2" stroke-width="3"/>
<path opacity="0.282828" d="M189.561 270.993L436.938 97.7779C443.504 93.1808 452.282 93.334 458.683 98.1574L699.864 279.9C706.265 284.724 708.832 293.12 706.223 300.698L607.904 586.237C605.295 593.815 598.102 598.851 590.089 598.711L288.143 593.44C280.13 593.301 273.118 588.017 270.775 580.352L182.481 291.556C180.138 283.892 182.996 275.59 189.561 270.993Z" stroke="url(#paint27_linear_7_145)" stroke-opacity="0.2" stroke-width="3"/>
<path opacity="0.292929" d="M188.589 267.85L438.424 99.3342C445.069 94.8525 453.844 95.1589 460.159 100.093L697.631 285.627C703.947 290.561 706.367 299.001 703.626 306.532L600.556 589.714C597.815 597.246 590.536 602.155 582.526 601.876L281.353 591.358C273.344 591.079 266.425 585.673 264.216 577.969L181.151 288.287C178.942 280.583 181.944 272.332 188.589 267.85Z" stroke="url(#paint28_linear_7_145)" stroke-opacity="0.2" stroke-width="3"/>
<path opacity="0.30303" d="M187.686 264.755L439.892 100.971C446.614 96.6061 455.382 97.0656 461.61 102.109L695.314 291.359C701.543 296.403 703.815 304.884 700.943 312.366L593.174 593.113C590.302 600.595 582.939 605.377 574.935 604.958L274.626 589.219C266.623 588.8 259.799 583.275 257.725 575.533L179.893 285.059C177.818 277.317 180.965 269.121 187.686 264.755Z" stroke="url(#paint29_linear_7_145)" stroke-opacity="0.2" stroke-width="3"/>
<path opacity="0.313131" d="M186.853 261.712L441.34 102.691C448.137 98.4442 456.895 99.0567 463.035 104.208L692.914 297.099C699.053 302.251 701.177 310.77 698.175 318.202L585.761 596.436C582.759 603.867 575.313 608.519 567.318 607.96L267.963 587.028C259.968 586.468 253.242 580.825 251.303 573.048L178.706 281.877C176.767 274.1 180.056 265.959 186.853 261.712Z" stroke="url(#paint30_linear_7_145)" stroke-opacity="0.2" stroke-width="3"/>
<path opacity="0.323232" d="M186.088 258.719L442.766 104.491C449.636 100.363 458.383 101.128 464.432 106.386L690.429 302.843C696.478 308.101 698.453 316.656 695.322 324.034L578.317 599.679C575.186 607.056 567.66 611.578 559.676 610.88L261.365 584.781C253.381 584.082 246.755 578.322 244.952 570.513L177.59 278.738C175.787 270.929 179.218 262.847 186.088 258.719Z" stroke="url(#paint31_linear_7_145)" stroke-opacity="0.2" stroke-width="3"/>
<path opacity="0.333333" d="M185.39 255.779L444.17 106.372C451.111 102.365 459.843 103.282 465.799 108.645L687.862 308.591C693.818 313.954 695.643 322.542 692.383 329.864L570.845 602.844C567.585 610.166 559.981 614.556 552.01 613.719L254.833 582.484C246.862 581.646 240.337 575.771 238.671 567.932L176.544 275.647C174.878 267.807 178.449 259.786 185.39 255.779Z" stroke="url(#paint32_linear_7_145)" stroke-opacity="0.2" stroke-width="3"/>
<path opacity="0.343434" d="M184.757 252.892L445.55 108.332C452.56 104.447 461.275 105.517 467.136 110.983L685.21 314.34C691.072 319.806 692.747 328.425 689.36 335.689L563.344 605.931C559.957 613.194 552.278 617.451 544.323 616.474L248.366 580.136C240.412 579.159 233.99 573.171 232.461 565.303L175.566 272.603C174.036 264.735 177.747 256.778 184.757 252.892Z" stroke="url(#paint33_linear_7_145)" stroke-opacity="0.2" stroke-width="3"/>
<path opacity="0.353535" d="M184.189 250.061L446.905 110.373C453.981 106.61 462.676 107.832 468.441 113.4L682.476 320.091C688.241 325.658 689.766 334.305 686.253 341.509L555.818 608.939C552.305 616.143 544.552 620.265 536.616 619.149L241.968 577.739C234.031 576.624 227.715 570.525 226.323 562.632L174.655 269.608C173.264 261.715 177.113 253.824 184.189 250.061Z" stroke="url(#paint34_linear_7_145)" stroke-opacity="0.2" stroke-width="3"/>
<path opacity="0.363636" d="M183.685 247.285L448.232 112.491C455.373 108.853 464.045 110.226 469.713 115.894L679.658 325.839C685.326 331.507 686.699 340.179 683.06 347.32L548.267 611.867C544.628 619.008 536.805 622.994 528.889 621.74L235.637 575.294C227.721 574.04 221.512 567.831 220.258 559.915L173.812 266.663C172.558 258.747 176.544 250.924 183.685 247.285Z" stroke="url(#paint35_linear_7_145)" stroke-opacity="0.2" stroke-width="3"/>
<path opacity="0.373737" d="M183.244 244.566L449.532 114.689C456.735 111.176 465.382 112.7 470.95 118.465L676.758 331.586C682.325 337.351 683.547 346.046 679.785 353.123L540.693 614.716C536.93 621.793 529.039 625.641 521.146 624.25L229.374 572.802C221.481 571.411 215.382 565.095 214.267 557.158L173.034 263.769C171.918 255.832 176.04 248.08 183.244 244.566Z" stroke="url(#paint36_linear_7_145)" stroke-opacity="0.2" stroke-width="3"/>
<path opacity="0.383838" d="M182.864 241.904L450.802 116.963C458.066 113.575 466.685 115.251 472.151 121.112L673.775 337.328C679.241 343.189 680.311 351.904 676.425 358.914L533.097 617.484C529.212 624.494 521.254 628.204 513.387 626.675L223.181 570.265C215.314 568.736 209.326 562.314 208.349 554.359L172.32 260.926C171.343 252.971 175.6 245.291 182.864 241.904Z" stroke="url(#paint37_linear_7_145)" stroke-opacity="0.2" stroke-width="3"/>
<path opacity="0.393939" d="M182.544 239.302L452.041 119.314C459.363 116.054 467.951 117.879 473.314 123.835L670.709 343.065C676.072 349.021 676.989 357.753 672.982 364.693L525.481 620.173C521.474 627.114 513.453 630.685 505.613 629.018L217.058 567.684C209.218 566.018 203.343 559.493 202.506 551.522L171.67 258.136C170.832 250.165 175.222 242.562 182.544 239.302Z" stroke="url(#paint38_linear_7_145)" stroke-opacity="0.2" stroke-width="3"/>
<path opacity="0.40404" d="M182.283 236.758L453.249 121.739C460.626 118.608 469.181 120.583 474.439 126.632L667.561 348.793C672.819 354.842 673.585 363.588 669.457 370.458L517.847 622.78C513.719 629.65 505.637 633.08 497.828 631.277L211.006 565.059C203.196 563.256 197.436 556.63 196.738 548.646L171.082 255.399C170.383 247.415 174.905 239.889 182.283 236.758Z" stroke="url(#paint39_linear_7_145)" stroke-opacity="0.2" stroke-width="3"/>
<path opacity="0.414141" d="M182.08 234.276L454.423 124.242C461.854 121.24 470.373 123.364 475.525 129.504L664.331 354.515C669.483 360.654 670.095 369.413 665.848 376.21L510.195 625.308C505.947 632.105 497.807 635.394 490.03 633.455L205.024 562.395C197.248 560.456 191.604 553.73 191.045 545.735L170.555 252.719C169.996 244.724 174.649 237.278 182.08 234.276Z" stroke="url(#paint40_linear_7_145)" stroke-opacity="0.2" stroke-width="3"/>
<path opacity="0.424242" d="M181.934 231.855L455.562 126.819C463.044 123.947 471.525 126.219 476.569 132.448L661.02 360.226C666.064 366.455 666.523 375.223 662.158 381.944L502.527 627.755C498.162 634.477 489.965 637.623 482.223 635.549L199.115 559.69C191.373 557.616 185.848 550.792 185.428 542.789L170.089 250.095C169.669 242.091 174.451 234.727 181.934 231.855Z" stroke="url(#paint41_linear_7_145)" stroke-opacity="0.2" stroke-width="3"/>
<path opacity="0.434343" d="M181.843 229.497L456.666 129.469C464.197 126.728 472.637 129.148 477.571 135.464L657.628 365.926C662.562 372.241 662.868 381.016 658.387 387.66L494.845 630.121C490.363 636.765 482.113 639.768 474.408 637.559L193.278 556.946C185.573 554.737 180.168 547.818 179.888 539.809L169.681 247.527C169.402 239.517 174.311 232.238 181.843 229.497Z" stroke="url(#paint42_linear_7_145)" stroke-opacity="0.2" stroke-width="3"/>
<path opacity="0.444444" d="M181.806 227.202L457.732 132.193C465.31 129.583 473.706 132.151 478.53 138.551L654.154 371.613C658.978 378.014 659.131 386.792 654.534 393.358L487.15 632.407C482.553 638.972 474.251 641.83 466.587 639.487L187.513 554.166C179.849 551.822 174.565 544.81 174.425 536.797L169.332 245.017C169.192 237.003 174.228 229.811 181.806 227.202Z" stroke="url(#paint43_linear_7_145)" stroke-opacity="0.2" stroke-width="3"/>
<path opacity="0.454545" d="M181.822 224.971L458.76 134.989C466.382 132.512 474.733 135.225 479.444 141.709L650.6 377.287C655.311 383.771 655.311 392.551 650.601 399.035L479.444 634.612C474.733 641.096 466.382 643.809 458.76 641.332L181.822 551.35C174.2 548.873 169.039 541.77 169.039 533.755L169.039 242.566C169.039 234.551 174.2 227.448 181.822 224.971Z" stroke="url(#paint44_linear_7_145)" stroke-opacity="0.2" stroke-width="3"/>
<path opacity="0.464646" d="M181.89 222.805L459.749 137.856C467.413 135.512 475.715 138.371 480.312 144.936L646.967 382.944C651.564 389.509 651.411 398.288 646.587 404.689L471.727 636.736C466.904 643.136 458.508 645.703 450.93 643.094L176.205 548.499C168.627 545.89 163.591 538.697 163.731 530.684L168.802 240.174C168.942 232.161 174.226 225.149 181.89 222.805Z" stroke="url(#paint45_linear_7_145)" stroke-opacity="0.2" stroke-width="3"/>
<path opacity="0.474747" d="M182.009 220.705L460.697 140.792C468.401 138.583 476.651 141.586 481.133 148.231L643.254 388.584C647.735 395.229 647.429 404.003 642.495 410.319L464.003 638.778C459.068 645.093 450.629 647.514 443.097 644.772L170.663 545.614C163.132 542.873 158.222 535.594 158.502 527.584L168.62 237.842C168.899 229.833 174.305 222.914 182.009 220.705Z" stroke="url(#paint46_linear_7_145)" stroke-opacity="0.2" stroke-width="3"/>
<path opacity="0.484848" d="M182.176 218.671L461.602 143.799C469.344 141.725 477.541 144.871 481.906 151.593L639.461 394.206C643.826 400.928 643.366 409.696 638.323 415.924L456.271 640.74C451.227 646.968 442.746 649.241 435.264 646.368L165.195 542.699C157.712 539.826 152.931 532.463 153.35 524.459L168.49 235.572C168.909 227.569 174.435 220.745 182.176 218.671Z" stroke="url(#paint47_linear_7_145)" stroke-opacity="0.2" stroke-width="3"/>
<path opacity="0.494949" d="M182.392 216.704L462.465 146.874C470.242 144.935 478.383 148.224 482.63 155.021L635.59 399.808C639.837 406.605 639.225 415.363 634.073 421.503L448.534 642.62C443.382 648.759 434.863 650.884 427.432 647.881L159.802 539.752C152.371 536.749 147.718 529.304 148.277 521.308L168.412 233.364C168.971 225.369 174.615 218.643 182.392 216.704Z" stroke="url(#paint48_linear_7_145)" stroke-opacity="0.2" stroke-width="3"/>
<path opacity="0.50505" d="M182.654 214.806L463.284 150.018C471.094 148.215 479.176 151.645 483.304 158.515L631.641 405.39C635.769 412.26 635.004 421.006 629.745 427.055L440.792 644.421C435.534 650.47 426.979 652.445 419.602 649.313L154.485 536.778C147.107 533.646 142.585 526.12 143.284 518.136L168.386 231.22C169.084 223.236 174.845 216.609 182.654 214.806Z" stroke="url(#paint49_linear_7_145)" stroke-opacity="0.2" stroke-width="3"/>
<path opacity="0.515152" d="M182.961 212.977L464.058 153.228C471.897 151.561 479.918 155.133 483.926 162.073L627.614 410.949C631.622 417.89 630.704 426.622 625.341 432.578L433.048 646.141C427.685 652.097 419.097 653.922 411.775 650.662L149.244 533.776C141.922 530.516 137.532 522.912 138.369 514.941L168.409 229.139C169.246 221.168 175.121 214.643 182.961 212.977Z" stroke="url(#paint50_linear_7_145)" stroke-opacity="0.2" stroke-width="3"/>
<path opacity="0.525253" d="M183.312 211.216L464.785 156.503C472.653 154.974 480.61 158.685 484.496 165.694L623.511 416.484C627.396 423.494 626.326 432.209 620.86 438.07L425.303 647.78C419.837 653.641 411.218 655.316 403.954 651.929L144.078 530.747C136.815 527.36 132.558 519.681 133.535 511.726L168.48 227.122C169.456 219.167 175.444 212.745 183.312 211.216Z" stroke="url(#paint51_linear_7_145)" stroke-opacity="0.2" stroke-width="3"/>
<path opacity="0.535354" d="M183.706 209.526L465.465 159.844C473.358 158.453 481.249 162.301 485.012 169.378L619.331 421.995C623.093 429.071 621.871 437.766 616.304 443.531L417.558 649.339C411.99 655.104 403.344 656.628 396.14 653.115L138.99 527.694C131.786 524.181 127.664 516.429 128.78 508.492L168.598 225.17C169.713 217.234 175.813 210.918 183.706 209.526Z" stroke="url(#paint52_linear_7_145)" stroke-opacity="0.2" stroke-width="3"/>
<path opacity="0.545455" d="M184.14 207.906L466.096 163.249C474.012 161.995 481.835 165.981 485.474 173.122L615.075 427.478C618.713 434.62 617.34 443.292 611.673 448.959L409.814 650.817C404.147 656.484 395.475 657.858 388.334 654.219L133.978 524.618C126.837 520.98 122.851 513.157 124.104 505.24L168.762 223.284C170.016 215.368 176.224 209.16 184.14 207.906Z" stroke="url(#paint53_linear_7_145)" stroke-opacity="0.2" stroke-width="3"/>
<path opacity="0.555556" d="M184.615 206.357L466.678 166.716C474.615 165.601 482.367 169.723 485.88 176.926L610.744 432.934C614.257 440.138 612.733 448.784 606.967 454.352L402.074 652.215C396.309 657.783 387.614 659.004 380.538 655.242L129.043 521.52C121.967 517.757 118.118 509.866 119.509 501.973L168.971 221.465C170.362 213.572 176.678 207.473 184.615 206.357Z" stroke="url(#paint54_linear_7_145)" stroke-opacity="0.2" stroke-width="3"/>
<path opacity="0.565657" d="M185.128 204.881L467.209 170.246C475.164 169.269 482.843 173.526 486.231 180.79L606.339 438.362C609.726 445.626 608.051 454.245 602.189 459.711L394.338 653.534C388.477 659 379.762 660.07 372.752 656.185L124.186 518.402C117.176 514.516 113.465 506.559 114.995 498.692L169.222 219.713C170.752 211.846 177.173 205.858 185.128 204.881Z" stroke="url(#paint55_linear_7_145)" stroke-opacity="0.2" stroke-width="3"/>
<path opacity="0.575758" d="M185.678 203.476L467.689 173.836C475.66 172.998 483.264 177.388 486.523 184.71L601.859 443.759C605.119 451.08 603.294 459.669 597.338 465.031L386.608 654.773C380.652 660.136 371.92 661.054 364.979 657.046L119.406 515.264C112.465 511.257 108.893 503.236 110.56 495.396L169.516 218.028C171.182 210.189 177.707 204.314 185.678 203.476Z" stroke="url(#paint56_linear_7_145)" stroke-opacity="0.2" stroke-width="3"/>
<path opacity="0.585859" d="M186.264 202.145L468.116 177.486C476.101 176.788 483.627 181.31 486.758 188.687L597.307 449.125C600.439 456.502 598.464 465.057 592.415 470.315L378.886 655.933C372.837 661.192 364.091 661.957 357.221 657.829L114.703 512.11C107.833 507.982 104.403 499.9 106.206 492.091L169.851 216.413C171.654 208.604 178.28 202.844 186.264 202.145Z" stroke="url(#paint57_linear_7_145)" stroke-opacity="0.2" stroke-width="3"/>
<path opacity="0.59596" d="M186.884 200.887L468.49 181.195C476.485 180.636 483.931 185.288 486.934 192.719L592.683 454.457C595.685 461.889 593.561 470.408 587.421 475.56L371.172 657.014C365.032 662.166 356.274 662.779 349.477 658.531L110.078 508.939C103.282 504.691 99.9925 496.551 101.931 488.774L170.224 214.866C172.163 207.089 178.889 201.446 186.884 200.887Z" stroke="url(#paint58_linear_7_145)" stroke-opacity="0.2" stroke-width="3"/>
<path opacity="0.606061" d="M187.538 199.702L468.81 184.961C476.813 184.542 484.177 189.324 487.049 196.806L587.986 459.757C590.859 467.239 588.586 475.72 582.358 480.764L363.468 658.017C357.24 663.061 348.472 663.52 341.75 659.155L105.532 505.753C98.8099 501.388 95.6634 493.191 97.7378 485.45L170.636 213.389C172.711 205.647 179.534 200.122 187.538 199.702Z" stroke="url(#paint59_linear_7_145)" stroke-opacity="0.2" stroke-width="3"/>
<path opacity="0.616162" d="M188.223 198.592L469.074 188.784C477.084 188.504 484.363 193.414 487.104 200.946L583.219 465.02C585.961 472.552 583.54 480.992 577.225 485.926L355.776 658.941C349.46 663.875 340.686 664.182 334.041 659.7L101.063 502.554C94.4183 498.072 91.4153 489.822 93.6244 482.117L171.085 211.981C173.294 204.277 180.213 198.871 188.223 198.592Z" stroke="url(#paint60_linear_7_145)" stroke-opacity="0.2" stroke-width="3"/>
<path opacity="0.626263" d="M188.937 197.557L469.282 192.663C477.296 192.523 484.488 197.559 487.097 205.137L578.382 470.249C580.991 477.827 578.424 486.223 572.024 491.046L348.096 659.788C341.696 664.611 332.917 664.764 326.352 660.167L96.6719 499.344C90.1067 494.747 87.2482 486.445 89.5914 478.781L171.569 210.645C173.912 202.98 180.924 197.696 188.937 197.557Z" stroke="url(#paint61_linear_7_145)" stroke-opacity="0.2" stroke-width="3"/>
<path opacity="0.636364" d="M189.681 196.597L469.433 196.597C477.448 196.597 484.551 201.757 487.028 209.38L573.476 475.44C575.952 483.062 573.239 491.412 566.755 496.123L340.431 660.557C333.947 665.268 325.167 665.268 318.683 660.557L92.359 496.123C85.875 491.412 83.1618 483.062 85.6385 475.44L172.087 209.38C174.563 201.757 181.666 196.597 189.681 196.597Z" stroke="url(#paint62_linear_7_145)" stroke-opacity="0.2" stroke-width="3"/>
<path opacity="0.646465" d="M190.452 195.711L469.526 200.582C477.54 200.722 484.552 206.006 486.895 213.671L568.501 480.591C570.844 488.256 567.985 496.557 561.42 501.154L332.781 661.249C326.216 665.846 317.437 665.693 311.037 660.869L88.1243 492.893C81.7235 488.07 79.1564 479.673 81.7657 472.095L172.637 208.185C175.246 200.607 182.439 195.571 190.452 195.711Z" stroke="url(#paint63_linear_7_145)" stroke-opacity="0.2" stroke-width="3"/>
<path opacity="0.656566" d="M191.249 194.902L469.561 204.621C477.57 204.901 484.489 210.306 486.698 218.01L563.458 485.703C565.667 493.408 562.664 501.658 556.02 506.14L325.149 661.864C318.504 666.346 309.729 666.04 303.414 661.105L83.9677 489.655C77.652 484.721 75.2319 476.281 77.9731 468.75L173.219 207.063C175.96 199.532 183.239 194.622 191.249 194.902Z" stroke="url(#paint64_linear_7_145)" stroke-opacity="0.2" stroke-width="3"/>
<path opacity="0.666667" d="M192.071 194.168L469.536 208.709C477.539 209.128 484.363 214.654 486.437 222.395L558.349 490.774C560.423 498.515 557.277 506.712 550.555 511.077L317.534 662.403C310.812 666.768 302.044 666.308 295.816 661.265L79.8892 486.411C73.6606 481.367 71.3881 472.886 74.2603 465.404L173.831 206.012C176.703 198.53 184.067 193.748 192.071 194.168Z" stroke="url(#paint65_linear_7_145)" stroke-opacity="0.2" stroke-width="3"/>
<path opacity="0.676768" d="M192.915 193.511L469.45 212.848C477.445 213.407 484.171 219.051 486.11 226.827L553.173 495.803C555.112 503.58 551.823 511.72 545.026 515.968L309.939 662.867C303.142 667.114 294.383 666.501 288.244 661.349L75.8884 483.162C69.7488 478.01 67.6247 469.491 70.627 462.06L174.472 205.035C177.474 197.604 184.92 192.952 192.915 193.511Z" stroke="url(#paint66_linear_7_145)" stroke-opacity="0.2" stroke-width="3"/>
<path opacity="0.686869" d="M193.782 192.93L469.304 217.035C477.288 217.733 483.915 223.493 485.717 231.303L547.933 500.789C549.736 508.598 546.305 516.68 539.436 520.808L302.365 663.255C295.495 667.383 286.748 666.617 280.699 661.359L71.9657 479.91C65.917 474.652 63.9419 466.097 67.0735 458.719L175.14 204.131C178.271 196.753 185.797 192.231 193.782 192.93Z" stroke="url(#paint67_linear_7_145)" stroke-opacity="0.2" stroke-width="3"/>
<path opacity="0.69697" d="M194.668 192.425L469.096 221.269C477.067 222.107 483.591 227.981 485.258 235.821L542.629 505.73C544.295 513.57 540.724 521.591 533.783 525.598L294.813 663.568C287.872 667.575 279.14 666.658 273.184 661.295L68.1208 476.655C62.1647 471.292 60.3393 462.704 63.5991 455.382L175.834 203.299C179.094 195.977 186.697 191.587 194.668 192.425Z" stroke="url(#paint68_linear_7_145)" stroke-opacity="0.2" stroke-width="3"/>
<path opacity="0.707071" d="M195.573 191.999L468.825 225.55C476.78 226.527 483.202 232.515 484.731 240.382L537.261 510.628C538.79 518.496 535.08 526.453 528.07 530.339L287.284 663.809C280.274 667.694 271.559 666.624 265.698 661.158L64.3534 473.401C58.4918 467.935 56.8165 459.317 60.2036 452.053L176.552 202.543C179.939 195.279 187.618 191.022 195.573 191.999Z" stroke="url(#paint69_linear_7_145)" stroke-opacity="0.2" stroke-width="3"/>
<path opacity="0.717172" d="M196.496 191.648L468.492 229.875C476.428 230.99 482.744 237.089 484.136 244.982L531.832 515.478C533.223 523.371 529.375 531.262 522.298 535.025L279.78 663.974C272.703 667.737 264.009 666.515 258.244 660.947L60.6636 470.147C54.8983 464.579 53.3737 455.933 56.8871 448.729L177.294 201.859C180.807 194.655 188.56 190.533 196.496 191.648Z" stroke="url(#paint70_linear_7_145)" stroke-opacity="0.2" stroke-width="3"/>
<path opacity="0.727273" d="M197.435 191.376L468.094 234.244C476.01 235.498 482.219 241.707 483.472 249.623L526.341 520.282C527.594 528.198 523.608 536.021 516.467 539.66L272.302 664.068C265.161 667.707 256.489 666.333 250.822 660.666L57.0509 466.895C51.3836 461.228 50.0101 452.556 53.6487 445.415L178.057 201.25C181.696 194.109 189.519 190.122 197.435 191.376Z" stroke="url(#paint71_linear_7_145)" stroke-opacity="0.2" stroke-width="3"/>
<path opacity="0.737374" d="M198.388 191.181L467.632 238.656C475.525 240.048 481.624 246.363 482.74 254.3L520.79 525.037C521.905 532.974 517.783 540.726 510.579 544.239L264.851 664.089C257.648 667.603 249.001 666.078 243.434 660.313L53.5156 463.647C47.9481 457.881 46.7261 449.187 50.4888 442.11L178.841 200.715C182.604 193.638 190.495 189.789 198.388 191.181Z" stroke="url(#paint72_linear_7_145)" stroke-opacity="0.2" stroke-width="3"/>
<path opacity="0.747475" d="M199.354 191.064L467.105 243.109C474.973 244.639 480.961 251.06 481.937 259.015L515.179 529.744C516.156 537.699 511.899 545.378 504.635 548.765L257.429 664.04C250.165 667.427 241.546 665.752 236.08 659.89L50.0567 460.404C44.5907 454.543 43.5207 445.828 47.4063 438.818L179.644 200.255C183.53 193.245 191.487 189.535 199.354 191.064Z" stroke="url(#paint73_linear_7_145)" stroke-opacity="0.2" stroke-width="3"/>
<path opacity="0.757576" d="M200.333 191.023L466.513 247.601C474.352 249.268 480.227 255.792 481.065 263.763L509.51 534.399C510.348 542.37 505.958 549.974 498.636 553.234L250.036 663.918C242.714 667.177 234.126 665.352 228.763 659.396L46.6747 457.166C41.3118 451.21 40.3941 442.478 44.4014 435.537L180.465 199.869C184.472 192.928 192.493 189.356 200.333 191.023Z" stroke="url(#paint74_linear_7_145)" stroke-opacity="0.2" stroke-width="3"/>
<path opacity="0.767677" d="M201.321 191.06L465.854 252.133C473.663 253.936 479.424 260.562 480.122 268.546L503.784 539.004C504.483 546.989 499.961 554.515 492.583 557.646L242.674 663.726C235.296 666.858 226.741 664.883 221.483 658.834L43.3688 453.937C38.1107 447.888 37.3455 439.142 41.4733 432.272L181.302 199.558C185.43 192.688 193.512 189.257 201.321 191.06Z" stroke="url(#paint75_linear_7_145)" stroke-opacity="0.2" stroke-width="3"/>
<path opacity="0.777778" d="M202.318 191.176L465.129 256.702C472.905 258.641 478.549 265.367 479.108 273.362L498.002 543.558C498.561 551.553 493.908 558.999 486.477 562.002L235.344 663.466C227.913 666.469 219.394 664.344 214.242 658.205L40.139 450.717C34.9872 444.577 34.3748 435.819 38.6219 429.022L182.154 199.323C186.401 192.526 194.542 189.237 202.318 191.176Z" stroke="url(#paint76_linear_7_145)" stroke-opacity="0.2" stroke-width="3"/>
<path opacity="0.787879" d="M203.323 191.369L464.336 261.308C472.077 263.382 477.603 270.205 478.022 278.209L492.165 548.059C492.584 556.063 487.802 563.427 480.32 566.299L228.047 663.137C220.565 666.009 212.084 663.737 207.04 657.508L36.9848 447.508C31.941 441.279 31.4815 432.511 35.8466 425.789L183.019 199.163C187.384 192.442 195.581 189.295 203.323 191.369Z" stroke="url(#paint77_linear_7_145)" stroke-opacity="0.2" stroke-width="3"/>
<path opacity="0.79798" d="M204.333 191.639L463.475 265.947C471.179 268.156 476.585 275.075 476.865 283.084L486.273 552.505C486.553 560.515 481.643 567.794 474.112 570.535L220.785 662.739C213.253 665.48 204.813 663.06 199.879 656.744L33.9058 444.308C28.9715 437.993 28.665 429.218 33.1468 422.573L183.897 199.077C188.379 192.433 196.629 189.43 204.333 191.639Z" stroke="url(#paint78_linear_7_145)" stroke-opacity="0.2" stroke-width="3"/>
<path opacity="0.808081" d="M205.349 191.987L462.547 270.621C470.211 272.964 475.495 279.976 475.635 287.989L480.329 556.898C480.469 564.912 475.433 572.104 467.855 574.713L213.558 662.275C205.98 664.884 197.583 662.317 192.76 655.916L30.9018 441.123C26.0784 434.722 25.9252 425.944 30.5222 419.379L184.785 199.068C189.383 192.503 197.684 189.644 205.349 191.987Z" stroke="url(#paint79_linear_7_145)" stroke-opacity="0.2" stroke-width="3"/>
<path opacity="0.818182" d="M206.367 192.412L461.549 275.326C469.172 277.802 474.332 284.906 474.332 292.92L474.332 561.235C474.332 569.249 469.172 576.352 461.549 578.829L206.367 661.743C198.745 664.219 190.394 661.506 185.683 655.022L27.9722 437.951C23.2613 431.467 23.2613 422.687 27.9722 416.203L185.683 199.132C190.394 192.648 198.745 189.935 206.367 192.412Z" stroke="url(#paint80_linear_7_145)" stroke-opacity="0.2" stroke-width="3"/>
<path opacity="0.828283" d="M207.387 192.915L460.483 280.062C468.061 282.672 473.097 289.864 472.957 297.877L468.285 565.515C468.145 573.529 462.861 580.541 455.197 582.884L199.214 661.146C191.55 663.489 183.248 660.631 178.651 654.065L25.1168 434.796C20.5197 428.231 20.673 419.452 25.4963 413.051L186.59 199.273C191.413 192.872 199.809 190.305 207.387 192.915Z" stroke="url(#paint81_linear_7_145)" stroke-opacity="0.2" stroke-width="3"/>
<path opacity="0.838384" d="M208.408 193.494L459.347 284.828C466.878 287.569 471.788 294.848 471.508 302.858L462.189 569.739C461.909 577.749 456.503 584.667 448.799 586.876L192.1 660.484C184.396 662.693 176.146 659.69 171.664 653.045L22.3352 431.656C17.8534 425.012 18.1599 416.237 23.0942 409.921L187.503 199.488C192.437 193.173 200.877 190.753 208.408 193.494Z" stroke="url(#paint82_linear_7_145)" stroke-opacity="0.2" stroke-width="3"/>
<path opacity="0.848485" d="M209.428 194.151L458.141 289.623C465.623 292.495 470.405 299.859 469.986 307.863L456.043 573.905C455.624 581.909 450.098 588.733 442.357 590.807L185.026 659.758C177.285 661.833 169.088 658.686 164.723 651.965L19.6265 428.536C15.2614 421.814 15.7209 413.046 20.7647 406.818L188.421 199.78C193.465 193.551 201.945 191.279 209.428 194.151Z" stroke="url(#paint83_linear_7_145)" stroke-opacity="0.2" stroke-width="3"/>
<path opacity="0.858586" d="M210.445 194.884L456.865 294.444C464.296 297.446 468.949 304.892 468.39 312.887L449.85 578.013C449.291 586.008 443.648 592.734 435.871 594.673L177.993 658.969C170.216 660.908 162.076 657.619 157.829 650.822L16.9905 425.434C12.7434 418.637 13.3559 409.878 18.5076 403.739L189.343 200.145C194.495 194.006 203.014 191.881 210.445 194.884Z" stroke="url(#paint84_linear_7_145)" stroke-opacity="0.2" stroke-width="3"/>
<path opacity="0.868687" d="M211.459 195.694L455.519 299.291C462.896 302.423 467.418 309.949 466.72 317.933L443.611 582.061C442.913 590.045 437.153 596.672 429.343 598.475L171.002 658.118C163.192 659.921 155.11 656.49 150.983 649.62L14.4268 422.353C10.2989 415.483 11.0642 406.736 16.3223 400.688L190.268 200.586C195.526 194.537 204.081 192.562 211.459 195.694Z" stroke="url(#paint85_linear_7_145)" stroke-opacity="0.2" stroke-width="3"/>
<path opacity="0.878788" d="M212.467 196.581L454.101 304.163C461.423 307.423 465.813 315.027 464.976 322.998L437.328 586.051C436.49 594.021 430.615 600.546 422.775 602.213L164.053 657.206C156.214 658.872 148.193 655.301 144.186 648.36L11.9347 419.295C7.92734 412.354 8.8451 403.622 14.208 397.666L191.194 201.102C196.557 195.146 205.145 193.321 212.467 196.581Z" stroke="url(#paint86_linear_7_145)" stroke-opacity="0.2" stroke-width="3"/>
<path opacity="0.888889" d="M213.469 197.543L452.613 309.058C459.877 312.445 464.134 320.124 463.157 328.079L431 589.979C430.023 597.934 424.035 604.355 416.167 605.884L157.149 656.232C149.282 657.762 141.324 654.051 137.439 647.041L9.51353 416.258C5.62793 409.249 6.69793 400.534 12.1639 394.673L192.12 201.693C197.586 195.831 206.205 194.156 213.469 197.543Z" stroke="url(#paint87_linear_7_145)" stroke-opacity="0.2" stroke-width="3"/>
<path opacity="0.89899" d="M214.463 198.581L451.053 313.974C458.257 317.488 462.379 325.24 461.263 333.177L424.629 593.846C423.513 601.783 417.414 608.098 409.521 609.49L150.289 655.2C142.396 656.592 134.505 652.743 130.742 645.666L7.16285 413.247C3.40019 406.17 4.62213 397.476 10.1896 391.71L193.045 202.358C198.613 196.593 207.259 195.068 214.463 198.581Z" stroke="url(#paint88_linear_7_145)" stroke-opacity="0.2" stroke-width="3"/>
<path opacity="0.909091" d="M215.448 199.696L449.422 318.912C456.563 322.551 460.549 330.374 459.296 338.29L418.217 597.653C416.963 605.569 410.754 611.777 402.838 613.031L143.476 654.11C135.56 655.364 127.737 651.378 124.098 644.236L4.88223 410.262C1.24364 403.121 2.61714 394.449 8.28438 388.782L193.967 203.099C199.635 197.431 208.307 196.058 215.448 199.696Z" stroke="url(#paint89_linear_7_145)" stroke-opacity="0.2" stroke-width="3"/>
<path opacity="0.919192" d="M216.422 200.885L447.719 323.867C454.796 327.63 458.645 335.522 457.253 343.414L411.764 601.395C410.372 609.288 404.056 615.387 396.12 616.502L136.709 652.96C128.772 654.076 121.02 649.954 117.507 642.75L2.67091 407.302C-0.8425 400.098 0.682129 391.452 6.44741 385.884L194.886 203.911C200.651 198.344 209.346 197.122 216.422 200.885Z" stroke="url(#paint90_linear_7_145)" stroke-opacity="0.2" stroke-width="3"/>
<path opacity="0.929293" d="M217.385 202.149L445.944 328.841C452.954 332.727 456.665 340.684 455.135 348.552L405.272 605.075C403.743 612.943 397.322 618.931 389.367 619.907L129.99 651.755C122.035 652.732 114.356 648.475 110.969 641.211L0.528048 404.371C-2.8591 397.107 -1.18379 388.488 4.67778 383.022L195.799 204.799C201.66 199.333 210.375 198.263 217.385 202.149Z" stroke="url(#paint91_linear_7_145)" stroke-opacity="0.2" stroke-width="3"/>
<path opacity="0.939394" d="M218.334 203.487L444.097 333.832C451.038 337.839 454.609 345.86 452.943 353.7L398.743 608.692C397.076 616.532 390.552 622.407 382.581 623.245L123.32 650.494C115.349 651.332 107.745 646.942 104.485 639.62L-1.54672 401.468C-4.80659 394.147 -2.98112 385.559 2.97495 380.196L196.705 205.76C202.661 200.398 211.393 199.48 218.334 203.487Z" stroke="url(#paint92_linear_7_145)" stroke-opacity="0.2" stroke-width="3"/>
<path opacity="0.949495" d="M219.268 204.901L442.178 338.838C449.048 342.966 452.479 351.048 450.676 358.858L392.176 612.246C390.373 620.056 383.747 625.816 375.763 626.514L116.699 649.18C108.714 649.878 101.188 645.356 98.0568 637.979L-3.55432 398.598C-6.6859 391.22 -4.71083 382.665 1.33793 377.407L197.603 206.796C203.652 201.538 212.398 200.773 219.268 204.901Z" stroke="url(#paint93_linear_7_145)" stroke-opacity="0.2" stroke-width="3"/>
<path opacity="0.959596" d="M220.187 206.386L440.187 343.857C446.984 348.104 450.273 356.245 448.334 364.021L385.575 615.734C383.636 623.511 376.91 629.154 368.915 629.713L110.128 647.81C102.133 648.369 94.6871 643.716 91.6847 636.285L-5.49518 395.756C-8.49754 388.325 -6.37345 379.806 -0.233849 374.654L198.492 207.903C204.632 202.751 213.39 202.139 220.187 206.386Z" stroke="url(#paint94_linear_7_145)" stroke-opacity="0.2" stroke-width="3"/>
<path opacity="0.969697" d="M221.089 207.946L438.123 348.889C444.844 353.254 447.991 361.451 445.917 369.193L378.939 619.158C376.864 626.9 370.041 632.425 362.037 632.844L103.609 646.388C95.6051 646.808 88.2416 642.026 85.3694 634.543L-7.37018 392.949C-10.2424 385.466 -7.96995 376.985 -1.74137 371.941L199.371 209.084C205.599 204.04 214.367 203.581 221.089 207.946Z" stroke="url(#paint95_linear_7_145)" stroke-opacity="0.2" stroke-width="3"/>
<path opacity="0.979798" d="M221.972 209.577L435.986 353.931C442.631 358.413 445.634 366.663 443.425 374.367L372.27 622.515C370.06 630.219 363.142 635.625 355.132 635.904L97.1415 644.913C89.1317 645.193 81.8528 640.283 79.1116 632.752L-9.18011 390.173C-11.9213 382.641 -9.5012 374.201 -3.18554 369.267L200.238 210.336C206.553 205.401 215.328 205.095 221.972 209.577Z" stroke="url(#paint96_linear_7_145)" stroke-opacity="0.2" stroke-width="3"/>
<path opacity="0.989899" d="M222.836 211.281L433.778 358.984C440.343 363.581 443.201 371.883 440.858 379.547L365.569 625.807C363.226 633.472 356.213 638.756 348.2 638.896L90.727 643.39C82.7136 643.53 75.5214 638.494 72.9121 630.916L-10.9257 387.433C-13.535 379.855 -10.968 371.459 -4.56717 366.635L201.091 211.661C207.492 206.837 216.271 206.684 222.836 211.281Z" stroke="url(#paint97_linear_7_145)" stroke-opacity="0.2" stroke-width="3"/>
<path d="M223.679 213.057L431.496 364.045C437.98 368.756 440.694 377.106 438.217 384.729L358.838 629.033C356.361 636.656 349.258 641.816 341.243 641.816H84.3664C76.3517 641.816 69.2485 636.656 66.7718 629.033L-12.6074 384.729C-15.0841 377.106 -12.3709 368.756 -5.88692 364.045L201.931 213.057C208.415 208.346 217.195 208.346 223.679 213.057Z" stroke="url(#paint98_linear_7_145)" stroke-opacity="0.2" stroke-width="3"/>
<defs>
<linearGradient id="paint0_linear_7_145" x1="237.308" y1="381.818" x2="823.952" y2="299.37" gradientUnits="userSpaceOnUse">
<stop stop-color="#FFC700"/>
<stop offset="1" stop-color="#FBE082"/>
</linearGradient>
<linearGradient id="paint1_linear_7_145" x1="233.927" y1="377.707" x2="820.848" y2="305.642" gradientUnits="userSpaceOnUse">
<stop stop-color="#FFC700"/>
<stop offset="1" stop-color="#FBE082"/>
</linearGradient>
<linearGradient id="paint2_linear_7_145" x1="230.637" y1="373.604" x2="817.651" y2="311.907" gradientUnits="userSpaceOnUse">
<stop stop-color="#FFC700"/>
<stop offset="1" stop-color="#FBE082"/>
</linearGradient>
<linearGradient id="paint3_linear_7_145" x1="227.439" y1="369.512" x2="814.363" y2="318.163" gradientUnits="userSpaceOnUse">
<stop stop-color="#FFC700"/>
<stop offset="1" stop-color="#FBE082"/>
</linearGradient>
<linearGradient id="paint4_linear_7_145" x1="224.332" y1="365.43" x2="810.984" y2="324.407" gradientUnits="userSpaceOnUse">
<stop stop-color="#FFC700"/>
<stop offset="1" stop-color="#FBE082"/>
</linearGradient>
<linearGradient id="paint5_linear_7_145" x1="221.315" y1="361.36" x2="807.515" y2="330.639" gradientUnits="userSpaceOnUse">
<stop stop-color="#FFC700"/>
<stop offset="1" stop-color="#FBE082"/>
</linearGradient>
<linearGradient id="paint6_linear_7_145" x1="218.389" y1="357.304" x2="803.955" y2="336.856" gradientUnits="userSpaceOnUse">
<stop stop-color="#FFC700"/>
<stop offset="1" stop-color="#FBE082"/>
</linearGradient>
<linearGradient id="paint7_linear_7_145" x1="215.552" y1="353.265" x2="800.305" y2="343.058" gradientUnits="userSpaceOnUse">
<stop stop-color="#FFC700"/>
<stop offset="1" stop-color="#FBE082"/>
</linearGradient>
<linearGradient id="paint8_linear_7_145" x1="212.805" y1="349.243" x2="796.566" y2="349.243" gradientUnits="userSpaceOnUse">
<stop stop-color="#FFC700"/>
<stop offset="1" stop-color="#FBE082"/>
</linearGradient>
<linearGradient id="paint9_linear_7_145" x1="210.147" y1="345.238" x2="792.738" y2="355.408" gradientUnits="userSpaceOnUse">
<stop stop-color="#FFC700"/>
<stop offset="1" stop-color="#FBE082"/>
</linearGradient>
<linearGradient id="paint10_linear_7_145" x1="207.577" y1="341.256" x2="788.822" y2="361.553" gradientUnits="userSpaceOnUse">
<stop stop-color="#FFC700"/>
<stop offset="1" stop-color="#FBE082"/>
</linearGradient>
<linearGradient id="paint11_linear_7_145" x1="205.095" y1="337.294" x2="784.817" y2="367.676" gradientUnits="userSpaceOnUse">
<stop stop-color="#FFC700"/>
<stop offset="1" stop-color="#FBE082"/>
</linearGradient>
<linearGradient id="paint12_linear_7_145" x1="202.7" y1="333.357" x2="780.726" y2="373.776" gradientUnits="userSpaceOnUse">
<stop stop-color="#FFC700"/>
<stop offset="1" stop-color="#FBE082"/>
</linearGradient>
<linearGradient id="paint13_linear_7_145" x1="200.392" y1="329.444" x2="776.547" y2="379.851" gradientUnits="userSpaceOnUse">
<stop stop-color="#FFC700"/>
<stop offset="1" stop-color="#FBE082"/>
</linearGradient>
<linearGradient id="paint14_linear_7_145" x1="198.17" y1="325.558" x2="772.283" y2="385.899" gradientUnits="userSpaceOnUse">
<stop stop-color="#FFC700"/>
<stop offset="1" stop-color="#FBE082"/>
</linearGradient>
<linearGradient id="paint15_linear_7_145" x1="196.034" y1="321.699" x2="767.933" y2="391.92" gradientUnits="userSpaceOnUse">
<stop stop-color="#FFC700"/>
<stop offset="1" stop-color="#FBE082"/>
</linearGradient>
<linearGradient id="paint16_linear_7_145" x1="193.982" y1="317.871" x2="763.498" y2="397.911" gradientUnits="userSpaceOnUse">
<stop stop-color="#FFC700"/>
<stop offset="1" stop-color="#FBE082"/>
</linearGradient>
<linearGradient id="paint17_linear_7_145" x1="192.015" y1="314.073" x2="758.98" y2="403.871" gradientUnits="userSpaceOnUse">
<stop stop-color="#FFC700"/>
<stop offset="1" stop-color="#FBE082"/>
</linearGradient>
<linearGradient id="paint18_linear_7_145" x1="190.131" y1="310.308" x2="754.377" y2="409.8" gradientUnits="userSpaceOnUse">
<stop stop-color="#FFC700"/>
<stop offset="1" stop-color="#FBE082"/>
</linearGradient>
<linearGradient id="paint19_linear_7_145" x1="188.33" y1="306.575" x2="749.693" y2="415.692" gradientUnits="userSpaceOnUse">
<stop stop-color="#FFC700"/>
<stop offset="1" stop-color="#FBE082"/>
</linearGradient>
<linearGradient id="paint20_linear_7_145" x1="186.61" y1="302.879" x2="744.926" y2="421.552" gradientUnits="userSpaceOnUse">
<stop stop-color="#FFC700"/>
<stop offset="1" stop-color="#FBE082"/>
</linearGradient>
<linearGradient id="paint21_linear_7_145" x1="184.972" y1="299.218" x2="740.078" y2="427.374" gradientUnits="userSpaceOnUse">
<stop stop-color="#FFC700"/>
<stop offset="1" stop-color="#FBE082"/>
</linearGradient>
<linearGradient id="paint22_linear_7_145" x1="183.414" y1="295.596" x2="735.15" y2="433.159" gradientUnits="userSpaceOnUse">
<stop stop-color="#FFC700"/>
<stop offset="1" stop-color="#FBE082"/>
</linearGradient>
<linearGradient id="paint23_linear_7_145" x1="181.935" y1="292.013" x2="730.142" y2="438.905" gradientUnits="userSpaceOnUse">
<stop stop-color="#FFC700"/>
<stop offset="1" stop-color="#FBE082"/>
</linearGradient>
<linearGradient id="paint24_linear_7_145" x1="180.535" y1="288.47" x2="725.056" y2="444.609" gradientUnits="userSpaceOnUse">
<stop stop-color="#FFC700"/>
<stop offset="1" stop-color="#FBE082"/>
</linearGradient>
<linearGradient id="paint25_linear_7_145" x1="179.213" y1="284.969" x2="719.892" y2="450.271" gradientUnits="userSpaceOnUse">
<stop stop-color="#FFC700"/>
<stop offset="1" stop-color="#FBE082"/>
</linearGradient>
<linearGradient id="paint26_linear_7_145" x1="177.967" y1="281.512" x2="714.651" y2="455.891" gradientUnits="userSpaceOnUse">
<stop stop-color="#FFC700"/>
<stop offset="1" stop-color="#FBE082"/>
</linearGradient>
<linearGradient id="paint27_linear_7_145" x1="176.798" y1="278.099" x2="709.334" y2="461.466" gradientUnits="userSpaceOnUse">
<stop stop-color="#FFC700"/>
<stop offset="1" stop-color="#FBE082"/>
</linearGradient>
<linearGradient id="paint28_linear_7_145" x1="175.704" y1="274.732" x2="703.943" y2="466.996" gradientUnits="userSpaceOnUse">
<stop stop-color="#FFC700"/>
<stop offset="1" stop-color="#FBE082"/>
</linearGradient>
<linearGradient id="paint29_linear_7_145" x1="174.683" y1="271.411" x2="698.477" y2="472.477" gradientUnits="userSpaceOnUse">
<stop stop-color="#FFC700"/>
<stop offset="1" stop-color="#FBE082"/>
</linearGradient>
<linearGradient id="paint30_linear_7_145" x1="173.735" y1="268.14" x2="692.938" y2="477.912" gradientUnits="userSpaceOnUse">
<stop stop-color="#FFC700"/>
<stop offset="1" stop-color="#FBE082"/>
</linearGradient>
<linearGradient id="paint31_linear_7_145" x1="172.86" y1="264.917" x2="687.328" y2="483.296" gradientUnits="userSpaceOnUse">
<stop stop-color="#FFC700"/>
<stop offset="1" stop-color="#FBE082"/>
</linearGradient>
<linearGradient id="paint32_linear_7_145" x1="172.055" y1="261.746" x2="681.646" y2="488.63" gradientUnits="userSpaceOnUse">
<stop stop-color="#FFC700"/>
<stop offset="1" stop-color="#FBE082"/>
</linearGradient>
<linearGradient id="paint33_linear_7_145" x1="171.321" y1="258.625" x2="675.894" y2="493.912" gradientUnits="userSpaceOnUse">
<stop stop-color="#FFC700"/>
<stop offset="1" stop-color="#FBE082"/>
</linearGradient>
<linearGradient id="paint34_linear_7_145" x1="170.655" y1="255.559" x2="670.074" y2="499.141" gradientUnits="userSpaceOnUse">
<stop stop-color="#FFC700"/>
<stop offset="1" stop-color="#FBE082"/>
</linearGradient>
<linearGradient id="paint35_linear_7_145" x1="170.057" y1="252.545" x2="664.185" y2="504.316" gradientUnits="userSpaceOnUse">
<stop stop-color="#FFC700"/>
<stop offset="1" stop-color="#FBE082"/>
</linearGradient>
<linearGradient id="paint36_linear_7_145" x1="169.526" y1="249.588" x2="658.23" y2="509.437" gradientUnits="userSpaceOnUse">
<stop stop-color="#FFC700"/>
<stop offset="1" stop-color="#FBE082"/>
</linearGradient>
<linearGradient id="paint37_linear_7_145" x1="169.06" y1="246.686" x2="652.21" y2="514.5" gradientUnits="userSpaceOnUse">
<stop stop-color="#FFC700"/>
<stop offset="1" stop-color="#FBE082"/>
</linearGradient>
<linearGradient id="paint38_linear_7_145" x1="168.659" y1="243.842" x2="646.125" y2="519.507" gradientUnits="userSpaceOnUse">
<stop stop-color="#FFC700"/>
<stop offset="1" stop-color="#FBE082"/>
</linearGradient>
<linearGradient id="paint39_linear_7_145" x1="168.321" y1="241.055" x2="639.977" y2="524.454" gradientUnits="userSpaceOnUse">
<stop stop-color="#FFC700"/>
<stop offset="1" stop-color="#FBE082"/>
</linearGradient>
<linearGradient id="paint40_linear_7_145" x1="168.045" y1="238.329" x2="633.766" y2="529.343" gradientUnits="userSpaceOnUse">
<stop stop-color="#FFC700"/>
<stop offset="1" stop-color="#FBE082"/>
</linearGradient>
<linearGradient id="paint41_linear_7_145" x1="167.83" y1="235.662" x2="627.495" y2="534.172" gradientUnits="userSpaceOnUse">
<stop stop-color="#FFC700"/>
<stop offset="1" stop-color="#FBE082"/>
</linearGradient>
<linearGradient id="paint42_linear_7_145" x1="167.675" y1="233.057" x2="621.164" y2="538.939" gradientUnits="userSpaceOnUse">
<stop stop-color="#FFC700"/>
<stop offset="1" stop-color="#FBE082"/>
</linearGradient>
<linearGradient id="paint43_linear_7_145" x1="167.579" y1="230.514" x2="614.774" y2="543.644" gradientUnits="userSpaceOnUse">
<stop stop-color="#FFC700"/>
<stop offset="1" stop-color="#FBE082"/>
</linearGradient>
<linearGradient id="paint44_linear_7_145" x1="167.539" y1="228.035" x2="608.327" y2="548.286" gradientUnits="userSpaceOnUse">
<stop stop-color="#FFC700"/>
<stop offset="1" stop-color="#FBE082"/>
</linearGradient>
<linearGradient id="paint45_linear_7_145" x1="167.556" y1="225.619" x2="601.824" y2="552.864" gradientUnits="userSpaceOnUse">
<stop stop-color="#FFC700"/>
<stop offset="1" stop-color="#FBE082"/>
</linearGradient>
<linearGradient id="paint46_linear_7_145" x1="167.628" y1="223.268" x2="595.267" y2="557.376" gradientUnits="userSpaceOnUse">
<stop stop-color="#FFC700"/>
<stop offset="1" stop-color="#FBE082"/>
</linearGradient>
<linearGradient id="paint47_linear_7_145" x1="167.752" y1="220.983" x2="588.655" y2="561.823" gradientUnits="userSpaceOnUse">
<stop stop-color="#FFC700"/>
<stop offset="1" stop-color="#FBE082"/>
</linearGradient>
<linearGradient id="paint48_linear_7_145" x1="167.93" y1="218.764" x2="581.992" y2="566.203" gradientUnits="userSpaceOnUse">
<stop stop-color="#FFC700"/>
<stop offset="1" stop-color="#FBE082"/>
</linearGradient>
<linearGradient id="paint49_linear_7_145" x1="168.158" y1="216.613" x2="575.277" y2="570.517" gradientUnits="userSpaceOnUse">
<stop stop-color="#FFC700"/>
<stop offset="1" stop-color="#FBE082"/>
</linearGradient>
<linearGradient id="paint50_linear_7_145" x1="168.436" y1="214.531" x2="568.513" y2="574.762" gradientUnits="userSpaceOnUse">
<stop stop-color="#FFC700"/>
<stop offset="1" stop-color="#FBE082"/>
</linearGradient>
<linearGradient id="paint51_linear_7_145" x1="168.762" y1="212.516" x2="561.701" y2="578.938" gradientUnits="userSpaceOnUse">
<stop stop-color="#FFC700"/>
<stop offset="1" stop-color="#FBE082"/>
</linearGradient>
<linearGradient id="paint52_linear_7_145" x1="169.135" y1="210.572" x2="554.842" y2="583.045" gradientUnits="userSpaceOnUse">
<stop stop-color="#FFC700"/>
<stop offset="1" stop-color="#FBE082"/>
</linearGradient>
<linearGradient id="paint53_linear_7_145" x1="169.554" y1="208.698" x2="547.937" y2="587.081" gradientUnits="userSpaceOnUse">
<stop stop-color="#FFC700"/>
<stop offset="1" stop-color="#FBE082"/>
</linearGradient>
<linearGradient id="paint54_linear_7_145" x1="170.017" y1="206.894" x2="540.987" y2="591.046" gradientUnits="userSpaceOnUse">
<stop stop-color="#FFC700"/>
<stop offset="1" stop-color="#FBE082"/>
</linearGradient>
<linearGradient id="paint55_linear_7_145" x1="170.523" y1="205.163" x2="533.995" y2="594.94" gradientUnits="userSpaceOnUse">
<stop stop-color="#FFC700"/>
<stop offset="1" stop-color="#FBE082"/>
</linearGradient>
<linearGradient id="paint56_linear_7_145" x1="171.07" y1="203.503" x2="526.961" y2="598.761" gradientUnits="userSpaceOnUse">
<stop stop-color="#FFC700"/>
<stop offset="1" stop-color="#FBE082"/>
</linearGradient>
<linearGradient id="paint57_linear_7_145" x1="171.658" y1="201.917" x2="519.888" y2="602.51" gradientUnits="userSpaceOnUse">
<stop stop-color="#FFC700"/>
<stop offset="1" stop-color="#FBE082"/>
</linearGradient>
<linearGradient id="paint58_linear_7_145" x1="172.284" y1="200.404" x2="512.775" y2="606.185" gradientUnits="userSpaceOnUse">
<stop stop-color="#FFC700"/>
<stop offset="1" stop-color="#FBE082"/>
</linearGradient>
<linearGradient id="paint59_linear_7_145" x1="172.948" y1="198.965" x2="505.625" y2="609.786" gradientUnits="userSpaceOnUse">
<stop stop-color="#FFC700"/>
<stop offset="1" stop-color="#FBE082"/>
</linearGradient>
<linearGradient id="paint60_linear_7_145" x1="173.648" y1="197.6" x2="498.439" y2="613.313" gradientUnits="userSpaceOnUse">
<stop stop-color="#FFC700"/>
<stop offset="1" stop-color="#FBE082"/>
</linearGradient>
<linearGradient id="paint61_linear_7_145" x1="174.383" y1="196.31" x2="491.218" y2="616.765" gradientUnits="userSpaceOnUse">
<stop stop-color="#FFC700"/>
<stop offset="1" stop-color="#FBE082"/>
</linearGradient>
<linearGradient id="paint62_linear_7_145" x1="175.15" y1="195.097" x2="483.964" y2="620.142" gradientUnits="userSpaceOnUse">
<stop stop-color="#FFC700"/>
<stop offset="1" stop-color="#FBE082"/>
</linearGradient>
<linearGradient id="paint63_linear_7_145" x1="175.95" y1="193.958" x2="476.678" y2="623.442" gradientUnits="userSpaceOnUse">
<stop stop-color="#FFC700"/>
<stop offset="1" stop-color="#FBE082"/>
</linearGradient>
<linearGradient id="paint64_linear_7_145" x1="176.78" y1="192.896" x2="469.362" y2="626.667" gradientUnits="userSpaceOnUse">
<stop stop-color="#FFC700"/>
<stop offset="1" stop-color="#FBE082"/>
</linearGradient>
<linearGradient id="paint65_linear_7_145" x1="177.638" y1="191.909" x2="462.017" y2="629.814" gradientUnits="userSpaceOnUse">
<stop stop-color="#FFC700"/>
<stop offset="1" stop-color="#FBE082"/>
</linearGradient>
<linearGradient id="paint66_linear_7_145" x1="178.524" y1="191.001" x2="454.645" y2="632.885" gradientUnits="userSpaceOnUse">
<stop stop-color="#FFC700"/>
<stop offset="1" stop-color="#FBE082"/>
</linearGradient>
<linearGradient id="paint67_linear_7_145" x1="179.437" y1="190.169" x2="447.246" y2="635.879" gradientUnits="userSpaceOnUse">
<stop stop-color="#FFC700"/>
<stop offset="1" stop-color="#FBE082"/>
</linearGradient>
<linearGradient id="paint68_linear_7_145" x1="180.374" y1="189.415" x2="439.823" y2="638.794" gradientUnits="userSpaceOnUse">
<stop stop-color="#FFC700"/>
<stop offset="1" stop-color="#FBE082"/>
</linearGradient>
<linearGradient id="paint69_linear_7_145" x1="181.334" y1="188.739" x2="432.377" y2="641.633" gradientUnits="userSpaceOnUse">
<stop stop-color="#FFC700"/>
<stop offset="1" stop-color="#FBE082"/>
</linearGradient>
<linearGradient id="paint70_linear_7_145" x1="182.316" y1="188.141" x2="424.909" y2="644.392" gradientUnits="userSpaceOnUse">
<stop stop-color="#FFC700"/>
<stop offset="1" stop-color="#FBE082"/>
</linearGradient>
<linearGradient id="paint71_linear_7_145" x1="183.318" y1="187.622" x2="417.42" y2="647.074" gradientUnits="userSpaceOnUse">
<stop stop-color="#FFC700"/>
<stop offset="1" stop-color="#FBE082"/>
</linearGradient>
<linearGradient id="paint72_linear_7_145" x1="184.339" y1="187.18" x2="409.913" y2="649.677" gradientUnits="userSpaceOnUse">
<stop stop-color="#FFC700"/>
<stop offset="1" stop-color="#FBE082"/>
</linearGradient>
<linearGradient id="paint73_linear_7_145" x1="185.377" y1="186.819" x2="402.389" y2="652.202" gradientUnits="userSpaceOnUse">
<stop stop-color="#FFC700"/>
<stop offset="1" stop-color="#FBE082"/>
</linearGradient>
<linearGradient id="paint74_linear_7_145" x1="186.431" y1="186.534" x2="394.848" y2="654.647" gradientUnits="userSpaceOnUse">
<stop stop-color="#FFC700"/>
<stop offset="1" stop-color="#FBE082"/>
</linearGradient>
<linearGradient id="paint75_linear_7_145" x1="187.5" y1="186.33" x2="387.293" y2="657.013" gradientUnits="userSpaceOnUse">
<stop stop-color="#FFC700"/>
<stop offset="1" stop-color="#FBE082"/>
</linearGradient>
<linearGradient id="paint76_linear_7_145" x1="188.582" y1="186.205" x2="379.725" y2="659.301" gradientUnits="userSpaceOnUse">
<stop stop-color="#FFC700"/>
<stop offset="1" stop-color="#FBE082"/>
</linearGradient>
<linearGradient id="paint77_linear_7_145" x1="189.675" y1="186.16" x2="372.145" y2="661.51" gradientUnits="userSpaceOnUse">
<stop stop-color="#FFC700"/>
<stop offset="1" stop-color="#FBE082"/>
</linearGradient>
<linearGradient id="paint78_linear_7_145" x1="190.779" y1="186.192" x2="364.555" y2="663.639" gradientUnits="userSpaceOnUse">
<stop stop-color="#FFC700"/>
<stop offset="1" stop-color="#FBE082"/>
</linearGradient>
<linearGradient id="paint79_linear_7_145" x1="191.891" y1="186.304" x2="356.957" y2="665.689" gradientUnits="userSpaceOnUse">
<stop stop-color="#FFC700"/>
<stop offset="1" stop-color="#FBE082"/>
</linearGradient>
<linearGradient id="paint80_linear_7_145" x1="193.011" y1="186.495" x2="349.351" y2="667.66" gradientUnits="userSpaceOnUse">
<stop stop-color="#FFC700"/>
<stop offset="1" stop-color="#FBE082"/>
</linearGradient>
<linearGradient id="paint81_linear_7_145" x1="194.136" y1="186.766" x2="341.739" y2="669.551" gradientUnits="userSpaceOnUse">
<stop stop-color="#FFC700"/>
<stop offset="1" stop-color="#FBE082"/>
</linearGradient>
<linearGradient id="paint82_linear_7_145" x1="195.267" y1="187.114" x2="334.123" y2="671.364" gradientUnits="userSpaceOnUse">
<stop stop-color="#FFC700"/>
<stop offset="1" stop-color="#FBE082"/>
</linearGradient>
<linearGradient id="paint83_linear_7_145" x1="196.4" y1="187.543" x2="326.504" y2="673.098" gradientUnits="userSpaceOnUse">
<stop stop-color="#FFC700"/>
<stop offset="1" stop-color="#FBE082"/>
</linearGradient>
<linearGradient id="paint84_linear_7_145" x1="197.534" y1="188.05" x2="318.883" y2="674.752" gradientUnits="userSpaceOnUse">
<stop stop-color="#FFC700"/>
<stop offset="1" stop-color="#FBE082"/>
</linearGradient>
<linearGradient id="paint85_linear_7_145" x1="198.669" y1="188.635" x2="311.262" y2="676.328" gradientUnits="userSpaceOnUse">
<stop stop-color="#FFC700"/>
<stop offset="1" stop-color="#FBE082"/>
</linearGradient>
<linearGradient id="paint86_linear_7_145" x1="199.803" y1="189.3" x2="303.642" y2="677.826" gradientUnits="userSpaceOnUse">
<stop stop-color="#FFC700"/>
<stop offset="1" stop-color="#FBE082"/>
</linearGradient>
<linearGradient id="paint87_linear_7_145" x1="200.933" y1="190.043" x2="296.025" y2="679.245" gradientUnits="userSpaceOnUse">
<stop stop-color="#FFC700"/>
<stop offset="1" stop-color="#FBE082"/>
</linearGradient>
<linearGradient id="paint88_linear_7_145" x1="202.06" y1="190.863" x2="288.412" y2="680.587" gradientUnits="userSpaceOnUse">
<stop stop-color="#FFC700"/>
<stop offset="1" stop-color="#FBE082"/>
</linearGradient>
<linearGradient id="paint89_linear_7_145" x1="203.182" y1="191.763" x2="280.804" y2="681.851" gradientUnits="userSpaceOnUse">
<stop stop-color="#FFC700"/>
<stop offset="1" stop-color="#FBE082"/>
</linearGradient>
<linearGradient id="paint90_linear_7_145" x1="204.296" y1="192.738" x2="273.203" y2="683.036" gradientUnits="userSpaceOnUse">
<stop stop-color="#FFC700"/>
<stop offset="1" stop-color="#FBE082"/>
</linearGradient>
<linearGradient id="paint91_linear_7_145" x1="205.403" y1="193.792" x2="265.61" y2="684.144" gradientUnits="userSpaceOnUse">
<stop stop-color="#FFC700"/>
<stop offset="1" stop-color="#FBE082"/>
</linearGradient>
<linearGradient id="paint92_linear_7_145" x1="206.5" y1="194.923" x2="258.027" y2="685.176" gradientUnits="userSpaceOnUse">
<stop stop-color="#FFC700"/>
<stop offset="1" stop-color="#FBE082"/>
</linearGradient>
<linearGradient id="paint93_linear_7_145" x1="207.586" y1="196.131" x2="250.455" y2="686.132" gradientUnits="userSpaceOnUse">
<stop stop-color="#FFC700"/>
<stop offset="1" stop-color="#FBE082"/>
</linearGradient>
<linearGradient id="paint94_linear_7_145" x1="208.659" y1="197.414" x2="242.895" y2="687.01" gradientUnits="userSpaceOnUse">
<stop stop-color="#FFC700"/>
<stop offset="1" stop-color="#FBE082"/>
</linearGradient>
<linearGradient id="paint95_linear_7_145" x1="209.719" y1="198.774" x2="235.349" y2="687.813" gradientUnits="userSpaceOnUse">
<stop stop-color="#FFC700"/>
<stop offset="1" stop-color="#FBE082"/>
</linearGradient>
<linearGradient id="paint96_linear_7_145" x1="210.765" y1="200.207" x2="227.817" y2="688.539" gradientUnits="userSpaceOnUse">
<stop stop-color="#FFC700"/>
<stop offset="1" stop-color="#FBE082"/>
</linearGradient>
<linearGradient id="paint97_linear_7_145" x1="211.793" y1="201.718" x2="220.302" y2="689.192" gradientUnits="userSpaceOnUse">
<stop stop-color="#FFC700"/>
<stop offset="1" stop-color="#FBE082"/>
</linearGradient>
<linearGradient id="paint98_linear_7_145" x1="212.805" y1="203.302" x2="212.805" y2="689.77" gradientUnits="userSpaceOnUse">
<stop stop-color="#FFC700"/>
<stop offset="1" stop-color="#FBE082"/>
</linearGradient>
</defs>
</svg>
